<svg width="40" height="40" viewBox="0 0 40 40" fill="none" xmlns="http://www.w3.org/2000/svg">
<path d="M7.7 30.2C9.4 28.9 11.3 27.8747 13.4 27.124C15.5 26.3733 17.7 25.9987 20 26C22.3 26 24.5 26.3753 26.6 27.126C28.7 27.8767 30.6 28.9013 32.3 30.2C33.4667 28.8333 34.3753 27.2833 35.026 25.55C35.6767 23.8167 36.0013 21.9667 36 20C36 15.5667 34.442 11.7913 31.326 8.674C28.21 5.55667 24.4347 3.99867 20 4C15.5667 4 11.7913 5.558 8.674 8.674C5.55667 11.79 3.99867 15.5653 4 20C4 21.9667 4.32533 23.8167 4.976 25.55C5.62667 27.2833 6.53467 28.8333 7.7 30.2ZM20 22C18.0333 22 16.3747 21.3253 15.024 19.976C13.6733 18.6267 12.9987 16.968 13 15C13 13.0333 13.6747 11.3747 15.024 10.024C16.3733 8.67333 18.032 7.99867 20 8C21.9667 8 23.6253 8.67467 24.976 10.024C26.3267 11.3733 27.0013 13.032 27 15C27 16.9667 26.3253 18.6253 24.976 19.976C23.6267 21.3267 21.968 22.0013 20 22ZM20 40C17.2333 40 14.6333 39.4747 12.2 38.424C9.76667 37.3733 7.65 35.9487 5.85 34.15C4.05 32.35 2.62533 30.2333 1.576 27.8C0.526667 25.3667 0.00133333 22.7667 0 20C0 17.2333 0.525333 14.6333 1.576 12.2C2.62667 9.76667 4.05133 7.65 5.85 5.85C7.65 4.05 9.76667 2.62533 12.2 1.576C14.6333 0.526667 17.2333 0.00133333 20 0C22.7667 0 25.3667 0.525333 27.8 1.576C30.2333 2.62667 32.35 4.05133 34.15 5.85C35.95 7.65 37.3753 9.76667 38.426 12.2C39.4767 14.6333 40.0013 17.2333 40 20C40 22.7667 39.4747 25.3667 38.424 27.8C37.3733 30.2333 35.9487 32.35 34.15 34.15C32.35 35.95 30.2333 37.3753 27.8 38.426C25.3667 39.4767 22.7667 40.0013 20 40Z" fill="black" fill-opacity="0.5"/>
</svg>
